name C:/MyDriveSym/Projects/mobilecap/Data\Session20210813_0002\mocap\ForceDataProcessed\walking2_forces.mot
datacolumns 19
datarows 17
range 1.13200000 1.14000000
endheader 
time	R_ground_force_vx	R_ground_force_vy	R_ground_force_vz	R_ground_force_px	R_ground_force_py	R_ground_force_pz	R_ground_torque_x	R_ground_torque_y	R_ground_torque_z	L_ground_force_vx	L_ground_force_vy	L_ground_force_vz	L_ground_force_px	L_ground_force_py	L_ground_force_pz	L_ground_torque_x	L_ground_torque_y	L_ground_torque_z	
          1.13200000	          0.00000000	          0.00000000	          0.00000000	          1.34743800	          0.00000000	         -0.16602100	          0.00000000	          0.00000000	          0.00000000	         53.92434200	        810.47928000	         14.97089600	          1.00023500	          0.00600000	         -0.21045800	          0.00000000	          4.34374300	          0.00000000	
          1.13250000	          0.00000000	          0.00000000	          0.00000000	          1.34859600	          0.00000000	         -0.16608000	          0.00000000	          0.00000000	          0.00000000	         54.20335500	        810.56813600	         15.01183400	          1.00039900	          0.00600000	         -0.21047900	          0.00000000	          4.34239100	          0.00000000	
          1.13300000	          0.00000000	          0.00000000	          0.00000000	          1.34975300	          0.00000000	         -0.16613900	          0.00000000	          0.00000000	          0.00000000	         54.48244000	        810.65180800	         15.05192700	          1.00056400	          0.00600000	         -0.21050100	          0.00000000	          4.34098900	          0.00000000	
          1.13350000	          0.00000000	          0.00000000	          0.00000000	          1.35091100	          0.00000000	         -0.16619800	          0.00000000	          0.00000000	          0.00000000	         54.76159000	        810.73025900	         15.09116800	          1.00072900	          0.00600000	         -0.21052100	          0.00000000	          4.33953800	          0.00000000	
          1.13400000	          0.00000000	          0.00000000	          0.00000000	          1.35206900	          0.00000000	         -0.16625700	          0.00000000	          0.00000000	          0.00000000	         55.04080100	        810.80345300	         15.12954700	          1.00089400	          0.00600000	         -0.21054200	          0.00000000	          4.33804000	          0.00000000	
          1.13450000	          0.00000000	          0.00000000	          0.00000000	          1.35322700	          0.00000000	         -0.16631700	          0.00000000	          0.00000000	          0.00000000	         55.32006500	        810.87135200	         15.16705700	          1.00105900	          0.00600000	         -0.21056300	          0.00000000	          4.33649300	          0.00000000	
          1.13500000	          0.00000000	          0.00000000	          0.00000000	          1.35438500	          0.00000000	         -0.16637600	          0.00000000	          0.00000000	          0.00000000	         55.59937600	        810.93391800	         15.20368900	          1.00122500	          0.00600000	         -0.21058300	          0.00000000	          4.33489800	          0.00000000	
          1.13550000	          0.00000000	          0.00000000	          0.00000000	          1.35554300	          0.00000000	         -0.16643500	          0.00000000	          0.00000000	          0.00000000	         55.87872900	        810.99111600	         15.23943600	          1.00139100	          0.00600000	         -0.21060400	          0.00000000	          4.33325600	          0.00000000	
          1.13600000	          0.00000000	          0.00000000	          0.00000000	          1.35670100	          0.00000000	         -0.16649400	          0.00000000	          0.00000000	          0.00000000	         56.15811800	        811.04290700	         15.27429000	          1.00155700	          0.00600000	         -0.21062400	          0.00000000	          4.33156700	          0.00000000	
          1.13650000	          0.00000000	          0.00000000	          0.00000000	          1.35785900	          0.00000000	         -0.16655300	          0.00000000	          0.00000000	          0.00000000	         56.43753500	        811.08925500	         15.30824300	          1.00172300	          0.00600000	         -0.21064400	          0.00000000	          4.32983200	          0.00000000	
          1.13700000	          0.00000000	          0.00000000	          0.00000000	          1.35901700	          0.00000000	         -0.16661200	          0.00000000	          0.00000000	          0.00000000	         56.71697500	        811.13012200	         15.34128600	          1.00189000	          0.00600000	         -0.21066400	          0.00000000	          4.32805000	          0.00000000	
          1.13750000	          0.00000000	          0.00000000	          0.00000000	          1.36017500	          0.00000000	         -0.16667100	          0.00000000	          0.00000000	          0.00000000	         56.99643300	        811.16547100	         15.37341300	          1.00205600	          0.00600000	         -0.21068400	          0.00000000	          4.32622300	          0.00000000	
          1.13800000	          0.00000000	          0.00000000	          0.00000000	          1.36133300	          0.00000000	         -0.16673100	          0.00000000	          0.00000000	          0.00000000	         57.27590100	        811.19526500	         15.40461600	          1.00222300	          0.00600000	         -0.21070300	          0.00000000	          4.32435000	          0.00000000	
          1.13850000	          0.00000000	          0.00000000	          0.00000000	          1.36249100	          0.00000000	         -0.16679000	          0.00000000	          0.00000000	          0.00000000	         57.55537400	        811.21946600	         15.43488800	          1.00239000	          0.00600000	         -0.21072200	          0.00000000	          4.32243200	          0.00000000	
          1.13900000	          0.00000000	          0.00000000	          0.00000000	          1.36364900	          0.00000000	         -0.16684900	          0.00000000	          0.00000000	          0.00000000	         57.83484600	        811.23803900	         15.46422000	          1.00255800	          0.00600000	         -0.21074200	          0.00000000	          4.32047000	          0.00000000	
          1.13950000	          0.00000000	          0.00000000	          0.00000000	          1.36480600	          0.00000000	         -0.16690800	          0.00000000	          0.00000000	          0.00000000	         58.11431100	        811.25094400	         15.49260600	          1.00272500	          0.00600000	         -0.21076100	          0.00000000	          4.31846400	          0.00000000	
          1.14000000	          0.00000000	          0.00000000	          0.00000000	          1.36596400	          0.00000000	         -0.16696700	          0.00000000	          0.00000000	          0.00000000	         58.39376200	        811.25814600	         15.52003800	          1.00289300	          0.00600000	         -0.21078000	          0.00000000	          4.31641300	          0.00000000	
